# xmcd
#
# Track frame offsets:
#	150
#	12974
#	27029
#	37694
#	57876
#	68509
#	79388
#	92686
#	101485
#	112090
#	118489
#	131363
#
# Disc length: 1904 seconds
#
# Revision: 1
# Processed by: cddbd v1.5PL3 Copyright (c) Steve Scherf et al.
# Submitted via: dBpowerAMP V4.0
#
DISCID=93076e0c
DTITLE=Various Artist - CountryClassics-MasterToneCD1;MDT8278-2
DYEAR=1996
DGENRE=Country
TTITLE0=PeaceInTheValley(BoxCarWillie) - BoxCarWillie
TTITLE1=PrettyBoyFloyd(WoodyGuthrie) - WoodyGuthrie
TTITLE2=DreamBaby(WaylonJennings) - WaylonJennings
TTITLE3=HalfAMan(WillieNelson) - WillieNelson
TTITLE4=ItWasn'tGodWhoMadeHonkyTonkAngels(DollyParton) - DollyParton
TTITLE5=Ain'tWeSadToday(JeanniePruett) - JeanniePruett
TTITLE6=Fever(BillieJoSpears) - BillieJoSpears
TTITLE7=BlueIsTheWayIFeel(ConwayTwitty) - ConwayTwitty
TTITLE8=TooLate(JimmyWakely) - JimmyWakely
TTITLE9=ReleaseMe(KittyWells) - KittyWells
TTITLE10=ShelterOfMyArms(WillieNelson) - WillieNelson
TTITLE11=Makin'Believe(DollyParton) - DollyParton
EXTD=corrected
EXTT0=
EXTT1=
EXTT2=
EXTT3=
EXTT4=
EXTT5=
EXTT6=
EXTT7=
EXTT8=
EXTT9=
EXTT10=
EXTT11=
PLAYORDER=
